<svg width="256" height="256" viewBox="0 0 256 256" fill="none" xmlns="http://www.w3.org/2000/svg">
  <defs>
    <linearGradient id="bg01" x1="40" y1="24" x2="208" y2="232" gradientUnits="userSpaceOnUse">
      <stop offset="0" stop-color="#14255E"/>
      <stop offset="0.5" stop-color="#0A0A2E"/>
      <stop offset="1" stop-color="#040814"/>
    </linearGradient>
    <radialGradient id="glow01" cx="0" cy="0" r="1" gradientUnits="userSpaceOnUse" gradientTransform="translate(128 114) rotate(90) scale(110)">
      <stop offset="0" stop-color="#1A5EFF" stop-opacity="0.5"/>
      <stop offset="1" stop-color="#1A5EFF" stop-opacity="0"/>
    </radialGradient>
    <linearGradient id="craft01" x1="128" y1="54" x2="128" y2="196" gradientUnits="userSpaceOnUse">
      <stop offset="0" stop-color="#A6F7FF"/>
      <stop offset="0.45" stop-color="#00DDFF"/>
      <stop offset="1" stop-color="#0095FF"/>
    </linearGradient>
    <linearGradient id="fire01" x1="128" y1="154" x2="128" y2="214" gradientUnits="userSpaceOnUse">
      <stop offset="0" stop-color="#FFDD00"/>
      <stop offset="0.55" stop-color="#FF7A00"/>
      <stop offset="1" stop-color="#FF3300"/>
    </linearGradient>
  </defs>
  <rect x="16" y="16" width="224" height="224" rx="52" fill="url(#bg01)"/>
  <rect x="16" y="16" width="224" height="224" rx="52" stroke="#A7C3FF" stroke-opacity="0.18"/>
  <circle cx="128" cy="118" r="86" fill="url(#glow01)"/>
  <path d="M59 184C96 154 130 134 173 118" stroke="#FF6600" stroke-width="14" stroke-linecap="round" opacity="0.9"/>
  <path d="M63 183C97 153 133 134 180 117" stroke="#FFD94A" stroke-width="5" stroke-linecap="round" opacity="0.95"/>
  <circle cx="193" cy="109" r="18" fill="#FF6600"/>
  <circle cx="193" cy="109" r="9" fill="#FFDD00"/>
  <path d="M128 54L162 111L146 116L171 170L141 160L128 198L115 160L85 170L110 116L94 111L128 54Z" fill="url(#craft01)"/>
  <path d="M128 72L146 109L128 121L110 109L128 72Z" fill="#004466" opacity="0.92"/>
  <path d="M118 165L128 152L138 165L133 202H123L118 165Z" fill="url(#fire01)"/>
  <rect x="124" y="34" width="8" height="18" rx="4" fill="#00FFFF"/>
  <circle cx="72" cy="70" r="4" fill="#FFFFFF" opacity="0.9"/>
  <circle cx="185" cy="59" r="3" fill="#FFFFFF" opacity="0.75"/>
  <circle cx="66" cy="118" r="2.5" fill="#00FFFF" opacity="0.7"/>
</svg>
